<mxfile host="65bd71144e">
    <diagram id="NHvq2GHkXw-07r8c6aTj" name="Page-1">
        <mxGraphModel dx="958" dy="518" grid="1" gridSize="10" guides="1" tooltips="1" connect="1" arrows="1" fold="1" page="1" pageScale="1" pageWidth="850" pageHeight="1100" math="0" shadow="0">
            <root>
                <mxCell id="0"/>
                <mxCell id="1" parent="0"/>
                <mxCell id="2" value="Actor" style="shape=umlActor;verticalLabelPosition=bottom;verticalAlign=top;html=1;outlineConnect=0;" vertex="1" parent="1">
                    <mxGeometry x="410" y="330" width="90" height="130" as="geometry"/>
                </mxCell>
                <mxCell id="3" value="Patient" style="ellipse;shape=cloud;whiteSpace=wrap;html=1;" vertex="1" parent="1">
                    <mxGeometry x="200" y="120" width="120" height="80" as="geometry"/>
                </mxCell>
                <mxCell id="4" value="Appointment" style="ellipse;shape=cloud;whiteSpace=wrap;html=1;" vertex="1" parent="1">
                    <mxGeometry x="680" y="250" width="120" height="80" as="geometry"/>
                </mxCell>
                <mxCell id="5" value="Administrator" style="ellipse;shape=cloud;whiteSpace=wrap;html=1;" vertex="1" parent="1">
                    <mxGeometry x="590" y="110" width="120" height="80" as="geometry"/>
                </mxCell>
                <mxCell id="6" value="Doctor" style="ellipse;shape=cloud;whiteSpace=wrap;html=1;" vertex="1" parent="1">
                    <mxGeometry x="390" y="30" width="120" height="80" as="geometry"/>
                </mxCell>
                <mxCell id="7" value="Hospital" style="ellipse;shape=cloud;whiteSpace=wrap;html=1;" vertex="1" parent="1">
                    <mxGeometry x="80" y="250" width="120" height="80" as="geometry"/>
                </mxCell>
            </root>
        </mxGraphModel>
    </diagram>
    <diagram id="t9d_oecGdKrcnQ-gNNHl" name="Page-2">
        <mxGraphModel dx="2248" dy="756" grid="1" gridSize="10" guides="1" tooltips="1" connect="1" arrows="1" fold="1" page="1" pageScale="1" pageWidth="850" pageHeight="1100" math="0" shadow="0">
            <root>
                <mxCell id="0"/>
                <mxCell id="1" parent="0"/>
                <mxCell id="_CRZ6Na-cbnJDA2HskSK-21" style="edgeStyle=none;html=1;exitX=0.5;exitY=0;exitDx=0;exitDy=0;entryX=0.5;entryY=1;entryDx=0;entryDy=0;endArrow=none;endFill=0;" edge="1" parent="1" source="m3_5llSQw-OcmThxXV6H-1" target="_CRZ6Na-cbnJDA2HskSK-12">
                    <mxGeometry relative="1" as="geometry"/>
                </mxCell>
                <mxCell id="_CRZ6Na-cbnJDA2HskSK-22" style="edgeStyle=none;html=1;exitX=0.5;exitY=0;exitDx=0;exitDy=0;entryX=0.5;entryY=1;entryDx=0;entryDy=0;endArrow=none;endFill=0;" edge="1" parent="1" source="m3_5llSQw-OcmThxXV6H-1" target="_CRZ6Na-cbnJDA2HskSK-4">
                    <mxGeometry relative="1" as="geometry"/>
                </mxCell>
                <mxCell id="_CRZ6Na-cbnJDA2HskSK-23" style="edgeStyle=none;html=1;exitX=0.5;exitY=0;exitDx=0;exitDy=0;entryX=0.5;entryY=1;entryDx=0;entryDy=0;endArrow=none;endFill=0;" edge="1" parent="1" source="m3_5llSQw-OcmThxXV6H-1" target="_CRZ6Na-cbnJDA2HskSK-3">
                    <mxGeometry relative="1" as="geometry"/>
                </mxCell>
                <mxCell id="_CRZ6Na-cbnJDA2HskSK-46" style="edgeStyle=orthogonalEdgeStyle;html=1;exitX=0;exitY=0.5;exitDx=0;exitDy=0;entryX=1;entryY=0.5;entryDx=0;entryDy=0;endArrow=none;endFill=0;startArrow=ERone;startFill=0;" edge="1" parent="1" source="m3_5llSQw-OcmThxXV6H-1" target="_CRZ6Na-cbnJDA2HskSK-40">
                    <mxGeometry relative="1" as="geometry"/>
                </mxCell>
                <mxCell id="_CRZ6Na-cbnJDA2HskSK-48" style="edgeStyle=orthogonalEdgeStyle;html=1;exitX=0.5;exitY=1;exitDx=0;exitDy=0;entryX=0.5;entryY=0;entryDx=0;entryDy=0;startArrow=ERone;startFill=0;endArrow=none;endFill=0;" edge="1" parent="1" source="m3_5llSQw-OcmThxXV6H-1" target="_CRZ6Na-cbnJDA2HskSK-41">
                    <mxGeometry relative="1" as="geometry">
                        <Array as="points">
                            <mxPoint x="225" y="340"/>
                            <mxPoint x="270" y="340"/>
                            <mxPoint x="270" y="400"/>
                        </Array>
                    </mxGeometry>
                </mxCell>
                <mxCell id="m3_5llSQw-OcmThxXV6H-1" value="Patient" style="rounded=1;whiteSpace=wrap;html=1;" vertex="1" parent="1">
                    <mxGeometry x="165" y="240" width="120" height="60" as="geometry"/>
                </mxCell>
                <mxCell id="_CRZ6Na-cbnJDA2HskSK-30" style="edgeStyle=none;html=1;exitX=0.5;exitY=1;exitDx=0;exitDy=0;entryX=0.452;entryY=-0.016;entryDx=0;entryDy=0;entryPerimeter=0;endArrow=none;endFill=0;" edge="1" parent="1" source="m3_5llSQw-OcmThxXV6H-2" target="_CRZ6Na-cbnJDA2HskSK-18">
                    <mxGeometry relative="1" as="geometry"/>
                </mxCell>
                <mxCell id="_CRZ6Na-cbnJDA2HskSK-31" style="edgeStyle=none;html=1;exitX=0.5;exitY=1;exitDx=0;exitDy=0;entryX=0.5;entryY=0;entryDx=0;entryDy=0;endArrow=none;endFill=0;" edge="1" parent="1" source="m3_5llSQw-OcmThxXV6H-2" target="_CRZ6Na-cbnJDA2HskSK-19">
                    <mxGeometry relative="1" as="geometry"/>
                </mxCell>
                <mxCell id="_CRZ6Na-cbnJDA2HskSK-32" style="edgeStyle=none;html=1;exitX=0.5;exitY=1;exitDx=0;exitDy=0;entryX=0.5;entryY=0;entryDx=0;entryDy=0;endArrow=none;endFill=0;" edge="1" parent="1" source="m3_5llSQw-OcmThxXV6H-2" target="_CRZ6Na-cbnJDA2HskSK-20">
                    <mxGeometry relative="1" as="geometry"/>
                </mxCell>
                <mxCell id="_CRZ6Na-cbnJDA2HskSK-52" style="edgeStyle=orthogonalEdgeStyle;html=1;exitX=1;exitY=0.5;exitDx=0;exitDy=0;entryX=0.5;entryY=1;entryDx=0;entryDy=0;startArrow=ERone;startFill=0;endArrow=none;endFill=0;" edge="1" parent="1" source="m3_5llSQw-OcmThxXV6H-2" target="_CRZ6Na-cbnJDA2HskSK-43">
                    <mxGeometry relative="1" as="geometry"/>
                </mxCell>
                <mxCell id="m3_5llSQw-OcmThxXV6H-2" value="Administrator" style="rounded=1;whiteSpace=wrap;html=1;" vertex="1" parent="1">
                    <mxGeometry x="750" y="690" width="120" height="60" as="geometry"/>
                </mxCell>
                <mxCell id="_CRZ6Na-cbnJDA2HskSK-36" style="edgeStyle=none;html=1;exitX=0.5;exitY=1;exitDx=0;exitDy=0;endArrow=none;endFill=0;" edge="1" parent="1" source="m3_5llSQw-OcmThxXV6H-3" target="_CRZ6Na-cbnJDA2HskSK-16">
                    <mxGeometry relative="1" as="geometry"/>
                </mxCell>
                <mxCell id="_CRZ6Na-cbnJDA2HskSK-37" style="edgeStyle=none;html=1;exitX=0.5;exitY=1;exitDx=0;exitDy=0;entryX=0.5;entryY=0;entryDx=0;entryDy=0;endArrow=none;endFill=0;" edge="1" parent="1" source="m3_5llSQw-OcmThxXV6H-3" target="_CRZ6Na-cbnJDA2HskSK-15">
                    <mxGeometry relative="1" as="geometry"/>
                </mxCell>
                <mxCell id="_CRZ6Na-cbnJDA2HskSK-38" style="edgeStyle=none;html=1;exitX=0.5;exitY=1;exitDx=0;exitDy=0;entryX=0.5;entryY=0;entryDx=0;entryDy=0;endArrow=none;endFill=0;" edge="1" parent="1" source="m3_5llSQw-OcmThxXV6H-3" target="_CRZ6Na-cbnJDA2HskSK-17">
                    <mxGeometry relative="1" as="geometry"/>
                </mxCell>
                <mxCell id="_CRZ6Na-cbnJDA2HskSK-54" style="edgeStyle=orthogonalEdgeStyle;html=1;exitX=1;exitY=0.5;exitDx=0;exitDy=0;startArrow=ERone;startFill=0;endArrow=none;endFill=0;" edge="1" parent="1" source="m3_5llSQw-OcmThxXV6H-3" target="_CRZ6Na-cbnJDA2HskSK-44">
                    <mxGeometry relative="1" as="geometry"/>
                </mxCell>
                <mxCell id="_CRZ6Na-cbnJDA2HskSK-56" style="edgeStyle=orthogonalEdgeStyle;html=1;exitX=1;exitY=0.75;exitDx=0;exitDy=0;entryX=0;entryY=0.5;entryDx=0;entryDy=0;startArrow=ERone;startFill=0;endArrow=none;endFill=0;" edge="1" parent="1" source="m3_5llSQw-OcmThxXV6H-3" target="_CRZ6Na-cbnJDA2HskSK-45">
                    <mxGeometry relative="1" as="geometry">
                        <Array as="points">
                            <mxPoint x="430" y="735"/>
                            <mxPoint x="430" y="880"/>
                        </Array>
                    </mxGeometry>
                </mxCell>
                <mxCell id="_CRZ6Na-cbnJDA2HskSK-59" style="edgeStyle=orthogonalEdgeStyle;html=1;exitX=0.5;exitY=0;exitDx=0;exitDy=0;entryX=0.5;entryY=1;entryDx=0;entryDy=0;startArrow=ERone;startFill=0;endArrow=none;endFill=0;" edge="1" parent="1" source="m3_5llSQw-OcmThxXV6H-3" target="_CRZ6Na-cbnJDA2HskSK-58">
                    <mxGeometry relative="1" as="geometry"/>
                </mxCell>
                <mxCell id="m3_5llSQw-OcmThxXV6H-3" value="Hospital" style="rounded=1;whiteSpace=wrap;html=1;" vertex="1" parent="1">
                    <mxGeometry x="170" y="690" width="120" height="60" as="geometry"/>
                </mxCell>
                <mxCell id="_CRZ6Na-cbnJDA2HskSK-33" style="edgeStyle=none;html=1;exitX=0.5;exitY=0;exitDx=0;exitDy=0;entryX=0.5;entryY=1;entryDx=0;entryDy=0;endArrow=none;endFill=0;" edge="1" parent="1" source="m3_5llSQw-OcmThxXV6H-4" target="_CRZ6Na-cbnJDA2HskSK-1">
                    <mxGeometry relative="1" as="geometry"/>
                </mxCell>
                <mxCell id="_CRZ6Na-cbnJDA2HskSK-34" style="edgeStyle=none;html=1;exitX=0.5;exitY=0;exitDx=0;exitDy=0;entryX=0.5;entryY=1;entryDx=0;entryDy=0;endArrow=none;endFill=0;" edge="1" parent="1" source="m3_5llSQw-OcmThxXV6H-4" target="_CRZ6Na-cbnJDA2HskSK-14">
                    <mxGeometry relative="1" as="geometry"/>
                </mxCell>
                <mxCell id="_CRZ6Na-cbnJDA2HskSK-35" style="edgeStyle=none;html=1;exitX=0.5;exitY=0;exitDx=0;exitDy=0;entryX=0.587;entryY=1.09;entryDx=0;entryDy=0;entryPerimeter=0;endArrow=none;endFill=0;" edge="1" parent="1" source="m3_5llSQw-OcmThxXV6H-4" target="_CRZ6Na-cbnJDA2HskSK-13">
                    <mxGeometry relative="1" as="geometry"/>
                </mxCell>
                <mxCell id="_CRZ6Na-cbnJDA2HskSK-51" style="edgeStyle=orthogonalEdgeStyle;html=1;exitX=1;exitY=0.5;exitDx=0;exitDy=0;entryX=0.5;entryY=1;entryDx=0;entryDy=0;startArrow=ERmany;startFill=0;endArrow=none;endFill=0;" edge="1" parent="1" source="m3_5llSQw-OcmThxXV6H-4" target="_CRZ6Na-cbnJDA2HskSK-42">
                    <mxGeometry relative="1" as="geometry">
                        <Array as="points">
                            <mxPoint x="810" y="510"/>
                            <mxPoint x="810" y="330"/>
                            <mxPoint x="520" y="330"/>
                        </Array>
                    </mxGeometry>
                </mxCell>
                <mxCell id="m3_5llSQw-OcmThxXV6H-4" value="Appointment" style="rounded=1;whiteSpace=wrap;html=1;" vertex="1" parent="1">
                    <mxGeometry x="480" y="480" width="120" height="60" as="geometry"/>
                </mxCell>
                <mxCell id="_CRZ6Na-cbnJDA2HskSK-27" style="edgeStyle=none;html=1;exitX=0.5;exitY=0;exitDx=0;exitDy=0;entryX=0.5;entryY=1;entryDx=0;entryDy=0;endArrow=none;endFill=0;" edge="1" parent="1" source="m3_5llSQw-OcmThxXV6H-5" target="_CRZ6Na-cbnJDA2HskSK-9">
                    <mxGeometry relative="1" as="geometry"/>
                </mxCell>
                <mxCell id="_CRZ6Na-cbnJDA2HskSK-28" style="edgeStyle=none;html=1;exitX=0.5;exitY=0;exitDx=0;exitDy=0;entryX=0.5;entryY=1;entryDx=0;entryDy=0;endArrow=none;endFill=0;" edge="1" parent="1" source="m3_5llSQw-OcmThxXV6H-5" target="_CRZ6Na-cbnJDA2HskSK-11">
                    <mxGeometry relative="1" as="geometry"/>
                </mxCell>
                <mxCell id="_CRZ6Na-cbnJDA2HskSK-29" style="edgeStyle=none;html=1;exitX=0.5;exitY=0;exitDx=0;exitDy=0;entryX=0.5;entryY=1;entryDx=0;entryDy=0;endArrow=none;endFill=0;" edge="1" parent="1" source="m3_5llSQw-OcmThxXV6H-5" target="_CRZ6Na-cbnJDA2HskSK-10">
                    <mxGeometry relative="1" as="geometry"/>
                </mxCell>
                <mxCell id="_CRZ6Na-cbnJDA2HskSK-50" style="edgeStyle=orthogonalEdgeStyle;html=1;exitX=0;exitY=0.5;exitDx=0;exitDy=0;entryX=1;entryY=0.5;entryDx=0;entryDy=0;startArrow=ERone;startFill=0;endArrow=none;endFill=0;" edge="1" parent="1" source="m3_5llSQw-OcmThxXV6H-5" target="_CRZ6Na-cbnJDA2HskSK-42">
                    <mxGeometry relative="1" as="geometry"/>
                </mxCell>
                <mxCell id="m3_5llSQw-OcmThxXV6H-5" value="Doctor" style="rounded=1;whiteSpace=wrap;html=1;" vertex="1" parent="1">
                    <mxGeometry x="750" y="230" width="120" height="60" as="geometry"/>
                </mxCell>
                <mxCell id="_CRZ6Na-cbnJDA2HskSK-1" value="appointment_id" style="ellipse;whiteSpace=wrap;html=1;" vertex="1" parent="1">
                    <mxGeometry x="410" y="410" width="90" height="40" as="geometry"/>
                </mxCell>
                <mxCell id="_CRZ6Na-cbnJDA2HskSK-3" value="phone_number" style="ellipse;whiteSpace=wrap;html=1;" vertex="1" parent="1">
                    <mxGeometry x="310" y="160" width="90" height="40" as="geometry"/>
                </mxCell>
                <mxCell id="_CRZ6Na-cbnJDA2HskSK-4" value="full_name" style="ellipse;whiteSpace=wrap;html=1;" vertex="1" parent="1">
                    <mxGeometry x="180" y="110" width="90" height="40" as="geometry"/>
                </mxCell>
                <mxCell id="_CRZ6Na-cbnJDA2HskSK-24" style="edgeStyle=none;html=1;exitX=0;exitY=0.5;exitDx=0;exitDy=0;entryX=0.5;entryY=1;entryDx=0;entryDy=0;endArrow=none;endFill=0;" edge="1" parent="1" source="_CRZ6Na-cbnJDA2HskSK-5" target="_CRZ6Na-cbnJDA2HskSK-6">
                    <mxGeometry relative="1" as="geometry"/>
                </mxCell>
                <mxCell id="_CRZ6Na-cbnJDA2HskSK-25" style="edgeStyle=none;html=1;exitX=0;exitY=0.5;exitDx=0;exitDy=0;entryX=1;entryY=0.5;entryDx=0;entryDy=0;endArrow=none;endFill=0;" edge="1" parent="1" source="_CRZ6Na-cbnJDA2HskSK-5" target="_CRZ6Na-cbnJDA2HskSK-7">
                    <mxGeometry relative="1" as="geometry"/>
                </mxCell>
                <mxCell id="_CRZ6Na-cbnJDA2HskSK-26" style="edgeStyle=none;html=1;exitX=0;exitY=0.5;exitDx=0;exitDy=0;entryX=0.5;entryY=0;entryDx=0;entryDy=0;endArrow=none;endFill=0;" edge="1" parent="1" source="_CRZ6Na-cbnJDA2HskSK-5" target="_CRZ6Na-cbnJDA2HskSK-8">
                    <mxGeometry relative="1" as="geometry"/>
                </mxCell>
                <mxCell id="_CRZ6Na-cbnJDA2HskSK-5" value="Patient_details" style="rounded=1;whiteSpace=wrap;html=1;" vertex="1" parent="1">
                    <mxGeometry x="-90" y="370" width="120" height="60" as="geometry"/>
                </mxCell>
                <mxCell id="_CRZ6Na-cbnJDA2HskSK-6" value="email" style="ellipse;whiteSpace=wrap;html=1;" vertex="1" parent="1">
                    <mxGeometry x="-220" y="290" width="90" height="40" as="geometry"/>
                </mxCell>
                <mxCell id="_CRZ6Na-cbnJDA2HskSK-7" value="insurance_number" style="ellipse;whiteSpace=wrap;html=1;" vertex="1" parent="1">
                    <mxGeometry x="-360" y="340" width="130" height="40" as="geometry"/>
                </mxCell>
                <mxCell id="_CRZ6Na-cbnJDA2HskSK-8" value="address" style="ellipse;whiteSpace=wrap;html=1;" vertex="1" parent="1">
                    <mxGeometry x="-220" y="450" width="90" height="40" as="geometry"/>
                </mxCell>
                <mxCell id="_CRZ6Na-cbnJDA2HskSK-9" value="doctor_id" style="ellipse;whiteSpace=wrap;html=1;" vertex="1" parent="1">
                    <mxGeometry x="630" y="160" width="90" height="40" as="geometry"/>
                </mxCell>
                <mxCell id="_CRZ6Na-cbnJDA2HskSK-10" value="speciality" style="ellipse;whiteSpace=wrap;html=1;" vertex="1" parent="1">
                    <mxGeometry x="900" y="160" width="90" height="40" as="geometry"/>
                </mxCell>
                <mxCell id="_CRZ6Na-cbnJDA2HskSK-11" value="full_name" style="ellipse;whiteSpace=wrap;html=1;" vertex="1" parent="1">
                    <mxGeometry x="760" y="110" width="90" height="40" as="geometry"/>
                </mxCell>
                <mxCell id="_CRZ6Na-cbnJDA2HskSK-12" value="patient_id" style="ellipse;whiteSpace=wrap;html=1;" vertex="1" parent="1">
                    <mxGeometry x="50" y="160" width="90" height="40" as="geometry"/>
                </mxCell>
                <mxCell id="_CRZ6Na-cbnJDA2HskSK-13" value="location" style="ellipse;whiteSpace=wrap;html=1;" vertex="1" parent="1">
                    <mxGeometry x="590" y="410" width="90" height="40" as="geometry"/>
                </mxCell>
                <mxCell id="_CRZ6Na-cbnJDA2HskSK-14" value="time" style="ellipse;whiteSpace=wrap;html=1;" vertex="1" parent="1">
                    <mxGeometry x="495" y="360" width="90" height="40" as="geometry"/>
                </mxCell>
                <mxCell id="_CRZ6Na-cbnJDA2HskSK-15" value="hospital_id" style="ellipse;whiteSpace=wrap;html=1;" vertex="1" parent="1">
                    <mxGeometry x="60" y="780" width="90" height="40" as="geometry"/>
                </mxCell>
                <mxCell id="_CRZ6Na-cbnJDA2HskSK-16" value="name" style="ellipse;whiteSpace=wrap;html=1;" vertex="1" parent="1">
                    <mxGeometry x="180" y="830" width="90" height="40" as="geometry"/>
                </mxCell>
                <mxCell id="_CRZ6Na-cbnJDA2HskSK-17" value="address" style="ellipse;whiteSpace=wrap;html=1;" vertex="1" parent="1">
                    <mxGeometry x="290" y="780" width="90" height="40" as="geometry"/>
                </mxCell>
                <mxCell id="_CRZ6Na-cbnJDA2HskSK-18" value="administrator_id" style="ellipse;whiteSpace=wrap;html=1;" vertex="1" parent="1">
                    <mxGeometry x="650" y="780" width="90" height="40" as="geometry"/>
                </mxCell>
                <mxCell id="_CRZ6Na-cbnJDA2HskSK-19" value="full_name" style="ellipse;whiteSpace=wrap;html=1;" vertex="1" parent="1">
                    <mxGeometry x="765" y="830" width="90" height="40" as="geometry"/>
                </mxCell>
                <mxCell id="_CRZ6Na-cbnJDA2HskSK-20" value="email" style="ellipse;whiteSpace=wrap;html=1;" vertex="1" parent="1">
                    <mxGeometry x="880" y="780" width="90" height="40" as="geometry"/>
                </mxCell>
                <mxCell id="_CRZ6Na-cbnJDA2HskSK-47" style="edgeStyle=orthogonalEdgeStyle;html=1;exitX=0.5;exitY=1;exitDx=0;exitDy=0;entryX=0.599;entryY=-0.063;entryDx=0;entryDy=0;entryPerimeter=0;endArrow=ERone;endFill=0;" edge="1" parent="1" source="_CRZ6Na-cbnJDA2HskSK-40" target="_CRZ6Na-cbnJDA2HskSK-5">
                    <mxGeometry relative="1" as="geometry"/>
                </mxCell>
                <mxCell id="_CRZ6Na-cbnJDA2HskSK-40" value="has" style="rhombus;whiteSpace=wrap;html=1;" vertex="1" parent="1">
                    <mxGeometry x="-100" y="190" width="80" height="80" as="geometry"/>
                </mxCell>
                <mxCell id="_CRZ6Na-cbnJDA2HskSK-49" style="edgeStyle=orthogonalEdgeStyle;html=1;exitX=0.5;exitY=1;exitDx=0;exitDy=0;entryX=0;entryY=0.5;entryDx=0;entryDy=0;startArrow=none;startFill=0;endArrow=ERmany;endFill=0;" edge="1" parent="1" source="_CRZ6Na-cbnJDA2HskSK-41" target="m3_5llSQw-OcmThxXV6H-4">
                    <mxGeometry relative="1" as="geometry"/>
                </mxCell>
                <mxCell id="_CRZ6Na-cbnJDA2HskSK-41" value="has" style="rhombus;whiteSpace=wrap;html=1;" vertex="1" parent="1">
                    <mxGeometry x="190" y="400" width="80" height="80" as="geometry"/>
                </mxCell>
                <mxCell id="_CRZ6Na-cbnJDA2HskSK-42" value="has" style="rhombus;whiteSpace=wrap;html=1;" vertex="1" parent="1">
                    <mxGeometry x="480" y="220" width="80" height="80" as="geometry"/>
                </mxCell>
                <mxCell id="_CRZ6Na-cbnJDA2HskSK-53" style="edgeStyle=orthogonalEdgeStyle;html=1;exitX=0;exitY=0.5;exitDx=0;exitDy=0;entryX=0.5;entryY=1;entryDx=0;entryDy=0;startArrow=none;startFill=0;endArrow=ERmany;endFill=0;" edge="1" parent="1" source="_CRZ6Na-cbnJDA2HskSK-43" target="m3_5llSQw-OcmThxXV6H-4">
                    <mxGeometry relative="1" as="geometry"/>
                </mxCell>
                <mxCell id="_CRZ6Na-cbnJDA2HskSK-43" value="makes" style="rhombus;whiteSpace=wrap;html=1;" vertex="1" parent="1">
                    <mxGeometry x="960" y="540" width="80" height="80" as="geometry"/>
                </mxCell>
                <mxCell id="_CRZ6Na-cbnJDA2HskSK-55" style="edgeStyle=orthogonalEdgeStyle;html=1;exitX=1;exitY=0.5;exitDx=0;exitDy=0;entryX=0.822;entryY=1.026;entryDx=0;entryDy=0;entryPerimeter=0;startArrow=none;startFill=0;endArrow=ERmany;endFill=0;" edge="1" parent="1" source="_CRZ6Na-cbnJDA2HskSK-44" target="m3_5llSQw-OcmThxXV6H-5">
                    <mxGeometry relative="1" as="geometry"/>
                </mxCell>
                <mxCell id="_CRZ6Na-cbnJDA2HskSK-44" value="has" style="rhombus;whiteSpace=wrap;html=1;" vertex="1" parent="1">
                    <mxGeometry x="480" y="630" width="80" height="80" as="geometry"/>
                </mxCell>
                <mxCell id="_CRZ6Na-cbnJDA2HskSK-57" style="edgeStyle=orthogonalEdgeStyle;html=1;exitX=1;exitY=0.5;exitDx=0;exitDy=0;entryX=0;entryY=0.5;entryDx=0;entryDy=0;startArrow=none;startFill=0;endArrow=ERmany;endFill=0;" edge="1" parent="1" source="_CRZ6Na-cbnJDA2HskSK-45" target="m3_5llSQw-OcmThxXV6H-2">
                    <mxGeometry relative="1" as="geometry">
                        <Array as="points">
                            <mxPoint x="610" y="880"/>
                            <mxPoint x="610" y="720"/>
                        </Array>
                    </mxGeometry>
                </mxCell>
                <mxCell id="_CRZ6Na-cbnJDA2HskSK-45" value="has" style="rhombus;whiteSpace=wrap;html=1;" vertex="1" parent="1">
                    <mxGeometry x="480" y="840" width="80" height="80" as="geometry"/>
                </mxCell>
                <mxCell id="_CRZ6Na-cbnJDA2HskSK-60" style="edgeStyle=orthogonalEdgeStyle;html=1;exitX=0.5;exitY=0;exitDx=0;exitDy=0;startArrow=none;startFill=0;endArrow=ERmany;endFill=0;" edge="1" parent="1" source="_CRZ6Na-cbnJDA2HskSK-58">
                    <mxGeometry relative="1" as="geometry">
                        <mxPoint x="177" y="300" as="targetPoint"/>
                    </mxGeometry>
                </mxCell>
                <mxCell id="_CRZ6Na-cbnJDA2HskSK-58" value="has" style="rhombus;whiteSpace=wrap;html=1;" vertex="1" parent="1">
                    <mxGeometry x="60" y="480" width="80" height="80" as="geometry"/>
                </mxCell>
                <mxCell id="9zZ9GmTubLCeW9Djlq3E-2" style="html=1;exitX=1;exitY=0.5;exitDx=0;exitDy=0;entryX=0;entryY=0.5;entryDx=0;entryDy=0;startArrow=none;startFill=0;endArrow=none;endFill=0;" edge="1" parent="1" source="9zZ9GmTubLCeW9Djlq3E-1" target="_CRZ6Na-cbnJDA2HskSK-5">
                    <mxGeometry relative="1" as="geometry"/>
                </mxCell>
                <mxCell id="9zZ9GmTubLCeW9Djlq3E-1" value="details_id" style="ellipse;whiteSpace=wrap;html=1;" vertex="1" parent="1">
                    <mxGeometry x="-360" y="410" width="130" height="40" as="geometry"/>
                </mxCell>
            </root>
        </mxGraphModel>
    </diagram>
    <diagram id="zollGq5g8Hso1uWwJmuE" name="Page-3">
        <mxGraphModel dx="982" dy="626" grid="1" gridSize="10" guides="1" tooltips="1" connect="1" arrows="1" fold="1" page="1" pageScale="1" pageWidth="850" pageHeight="1100" math="0" shadow="0">
            <root>
                <mxCell id="0"/>
                <mxCell id="1" parent="0"/>
                <mxCell id="1G_BOFx4f-t0yg16kwgL-1" value="Hospital" style="swimlane;fontStyle=1;align=center;verticalAlign=top;childLayout=stackLayout;horizontal=1;startSize=26;horizontalStack=0;resizeParent=1;resizeParentMax=0;resizeLast=0;collapsible=1;marginBottom=0;" vertex="1" parent="1">
                    <mxGeometry x="120" y="160" width="160" height="112" as="geometry"/>
                </mxCell>
                <mxCell id="1G_BOFx4f-t0yg16kwgL-2" value="hospital_id : int" style="text;strokeColor=none;fillColor=none;align=left;verticalAlign=top;spacingLeft=4;spacingRight=4;overflow=hidden;rotatable=0;points=[[0,0.5],[1,0.5]];portConstraint=eastwest;" vertex="1" parent="1G_BOFx4f-t0yg16kwgL-1">
                    <mxGeometry y="26" width="160" height="26" as="geometry"/>
                </mxCell>
                <mxCell id="1G_BOFx4f-t0yg16kwgL-3" value="" style="line;strokeWidth=1;fillColor=none;align=left;verticalAlign=middle;spacingTop=-1;spacingLeft=3;spacingRight=3;rotatable=0;labelPosition=right;points=[];portConstraint=eastwest;strokeColor=inherit;" vertex="1" parent="1G_BOFx4f-t0yg16kwgL-1">
                    <mxGeometry y="52" width="160" height="8" as="geometry"/>
                </mxCell>
                <mxCell id="1G_BOFx4f-t0yg16kwgL-4" value="name : varchar" style="text;strokeColor=none;fillColor=none;align=left;verticalAlign=top;spacingLeft=4;spacingRight=4;overflow=hidden;rotatable=0;points=[[0,0.5],[1,0.5]];portConstraint=eastwest;" vertex="1" parent="1G_BOFx4f-t0yg16kwgL-1">
                    <mxGeometry y="60" width="160" height="26" as="geometry"/>
                </mxCell>
                <mxCell id="Lmvut249eSvQj9KjLrhC-1" value="address : varchar" style="text;strokeColor=none;fillColor=none;align=left;verticalAlign=top;spacingLeft=4;spacingRight=4;overflow=hidden;rotatable=0;points=[[0,0.5],[1,0.5]];portConstraint=eastwest;" vertex="1" parent="1G_BOFx4f-t0yg16kwgL-1">
                    <mxGeometry y="86" width="160" height="26" as="geometry"/>
                </mxCell>
                <mxCell id="Lmvut249eSvQj9KjLrhC-2" value="Administrator" style="swimlane;fontStyle=1;align=center;verticalAlign=top;childLayout=stackLayout;horizontal=1;startSize=26;horizontalStack=0;resizeParent=1;resizeParentMax=0;resizeLast=0;collapsible=1;marginBottom=0;" vertex="1" parent="1">
                    <mxGeometry x="120" y="530" width="160" height="138" as="geometry"/>
                </mxCell>
                <mxCell id="Lmvut249eSvQj9KjLrhC-3" value="administrator_id : int" style="text;strokeColor=none;fillColor=none;align=left;verticalAlign=top;spacingLeft=4;spacingRight=4;overflow=hidden;rotatable=0;points=[[0,0.5],[1,0.5]];portConstraint=eastwest;" vertex="1" parent="Lmvut249eSvQj9KjLrhC-2">
                    <mxGeometry y="26" width="160" height="26" as="geometry"/>
                </mxCell>
                <mxCell id="Lmvut249eSvQj9KjLrhC-4" value="" style="line;strokeWidth=1;fillColor=none;align=left;verticalAlign=middle;spacingTop=-1;spacingLeft=3;spacingRight=3;rotatable=0;labelPosition=right;points=[];portConstraint=eastwest;strokeColor=inherit;" vertex="1" parent="Lmvut249eSvQj9KjLrhC-2">
                    <mxGeometry y="52" width="160" height="8" as="geometry"/>
                </mxCell>
                <mxCell id="Lmvut249eSvQj9KjLrhC-5" value="full_name : varchar" style="text;strokeColor=none;fillColor=none;align=left;verticalAlign=top;spacingLeft=4;spacingRight=4;overflow=hidden;rotatable=0;points=[[0,0.5],[1,0.5]];portConstraint=eastwest;" vertex="1" parent="Lmvut249eSvQj9KjLrhC-2">
                    <mxGeometry y="60" width="160" height="26" as="geometry"/>
                </mxCell>
                <mxCell id="Lmvut249eSvQj9KjLrhC-6" value="email : varchar" style="text;strokeColor=none;fillColor=none;align=left;verticalAlign=top;spacingLeft=4;spacingRight=4;overflow=hidden;rotatable=0;points=[[0,0.5],[1,0.5]];portConstraint=eastwest;" vertex="1" parent="Lmvut249eSvQj9KjLrhC-2">
                    <mxGeometry y="86" width="160" height="26" as="geometry"/>
                </mxCell>
                <mxCell id="VW_mA1LhqFQn51hT7c9h-20" value="fk_hospital_id : int" style="text;strokeColor=none;fillColor=none;align=left;verticalAlign=top;spacingLeft=4;spacingRight=4;overflow=hidden;rotatable=0;points=[[0,0.5],[1,0.5]];portConstraint=eastwest;" vertex="1" parent="Lmvut249eSvQj9KjLrhC-2">
                    <mxGeometry y="112" width="160" height="26" as="geometry"/>
                </mxCell>
                <mxCell id="Lmvut249eSvQj9KjLrhC-7" value="Doctor" style="swimlane;fontStyle=1;align=center;verticalAlign=top;childLayout=stackLayout;horizontal=1;startSize=26;horizontalStack=0;resizeParent=1;resizeParentMax=0;resizeLast=0;collapsible=1;marginBottom=0;" vertex="1" parent="1">
                    <mxGeometry x="720" y="160" width="160" height="138" as="geometry"/>
                </mxCell>
                <mxCell id="Lmvut249eSvQj9KjLrhC-8" value="doctor_id : int" style="text;strokeColor=none;fillColor=none;align=left;verticalAlign=top;spacingLeft=4;spacingRight=4;overflow=hidden;rotatable=0;points=[[0,0.5],[1,0.5]];portConstraint=eastwest;" vertex="1" parent="Lmvut249eSvQj9KjLrhC-7">
                    <mxGeometry y="26" width="160" height="26" as="geometry"/>
                </mxCell>
                <mxCell id="Lmvut249eSvQj9KjLrhC-9" value="" style="line;strokeWidth=1;fillColor=none;align=left;verticalAlign=middle;spacingTop=-1;spacingLeft=3;spacingRight=3;rotatable=0;labelPosition=right;points=[];portConstraint=eastwest;strokeColor=inherit;" vertex="1" parent="Lmvut249eSvQj9KjLrhC-7">
                    <mxGeometry y="52" width="160" height="8" as="geometry"/>
                </mxCell>
                <mxCell id="Lmvut249eSvQj9KjLrhC-10" value="full_name : varchar" style="text;strokeColor=none;fillColor=none;align=left;verticalAlign=top;spacingLeft=4;spacingRight=4;overflow=hidden;rotatable=0;points=[[0,0.5],[1,0.5]];portConstraint=eastwest;" vertex="1" parent="Lmvut249eSvQj9KjLrhC-7">
                    <mxGeometry y="60" width="160" height="26" as="geometry"/>
                </mxCell>
                <mxCell id="Lmvut249eSvQj9KjLrhC-11" value="speciality : varchar" style="text;strokeColor=none;fillColor=none;align=left;verticalAlign=top;spacingLeft=4;spacingRight=4;overflow=hidden;rotatable=0;points=[[0,0.5],[1,0.5]];portConstraint=eastwest;" vertex="1" parent="Lmvut249eSvQj9KjLrhC-7">
                    <mxGeometry y="86" width="160" height="26" as="geometry"/>
                </mxCell>
                <mxCell id="VW_mA1LhqFQn51hT7c9h-22" value="fk_hospital_id : int" style="text;strokeColor=none;fillColor=none;align=left;verticalAlign=top;spacingLeft=4;spacingRight=4;overflow=hidden;rotatable=0;points=[[0,0.5],[1,0.5]];portConstraint=eastwest;" vertex="1" parent="Lmvut249eSvQj9KjLrhC-7">
                    <mxGeometry y="112" width="160" height="26" as="geometry"/>
                </mxCell>
                <mxCell id="VW_mA1LhqFQn51hT7c9h-11" style="edgeStyle=orthogonalEdgeStyle;html=1;exitX=0.5;exitY=0;exitDx=0;exitDy=0;entryX=1;entryY=0.5;entryDx=0;entryDy=0;startArrow=ERone;startFill=0;endArrow=ERmany;endFill=0;" edge="1" parent="1" source="Lmvut249eSvQj9KjLrhC-12" target="VW_mA1LhqFQn51hT7c9h-5">
                    <mxGeometry relative="1" as="geometry"/>
                </mxCell>
                <mxCell id="Lmvut249eSvQj9KjLrhC-12" value="Patient" style="swimlane;fontStyle=1;align=center;verticalAlign=top;childLayout=stackLayout;horizontal=1;startSize=26;horizontalStack=0;resizeParent=1;resizeParentMax=0;resizeLast=0;collapsible=1;marginBottom=0;" vertex="1" parent="1">
                    <mxGeometry x="720" y="530" width="160" height="138" as="geometry"/>
                </mxCell>
                <mxCell id="Lmvut249eSvQj9KjLrhC-13" value="patient_id : int" style="text;strokeColor=none;fillColor=none;align=left;verticalAlign=top;spacingLeft=4;spacingRight=4;overflow=hidden;rotatable=0;points=[[0,0.5],[1,0.5]];portConstraint=eastwest;" vertex="1" parent="Lmvut249eSvQj9KjLrhC-12">
                    <mxGeometry y="26" width="160" height="26" as="geometry"/>
                </mxCell>
                <mxCell id="Lmvut249eSvQj9KjLrhC-14" value="" style="line;strokeWidth=1;fillColor=none;align=left;verticalAlign=middle;spacingTop=-1;spacingLeft=3;spacingRight=3;rotatable=0;labelPosition=right;points=[];portConstraint=eastwest;strokeColor=inherit;" vertex="1" parent="Lmvut249eSvQj9KjLrhC-12">
                    <mxGeometry y="52" width="160" height="8" as="geometry"/>
                </mxCell>
                <mxCell id="Lmvut249eSvQj9KjLrhC-15" value="full_name : varchar" style="text;strokeColor=none;fillColor=none;align=left;verticalAlign=top;spacingLeft=4;spacingRight=4;overflow=hidden;rotatable=0;points=[[0,0.5],[1,0.5]];portConstraint=eastwest;" vertex="1" parent="Lmvut249eSvQj9KjLrhC-12">
                    <mxGeometry y="60" width="160" height="26" as="geometry"/>
                </mxCell>
                <mxCell id="Lmvut249eSvQj9KjLrhC-16" value="phone_number : int" style="text;strokeColor=none;fillColor=none;align=left;verticalAlign=top;spacingLeft=4;spacingRight=4;overflow=hidden;rotatable=0;points=[[0,0.5],[1,0.5]];portConstraint=eastwest;" vertex="1" parent="Lmvut249eSvQj9KjLrhC-12">
                    <mxGeometry y="86" width="160" height="26" as="geometry"/>
                </mxCell>
                <mxCell id="VW_mA1LhqFQn51hT7c9h-24" value="fk_hospital_id : int" style="text;strokeColor=none;fillColor=none;align=left;verticalAlign=top;spacingLeft=4;spacingRight=4;overflow=hidden;rotatable=0;points=[[0,0.5],[1,0.5]];portConstraint=eastwest;" vertex="1" parent="Lmvut249eSvQj9KjLrhC-12">
                    <mxGeometry y="112" width="160" height="26" as="geometry"/>
                </mxCell>
                <mxCell id="Lmvut249eSvQj9KjLrhC-18" value="Appointment" style="swimlane;fontStyle=1;align=center;verticalAlign=top;childLayout=stackLayout;horizontal=1;startSize=26;horizontalStack=0;resizeParent=1;resizeParentMax=0;resizeLast=0;collapsible=1;marginBottom=0;" vertex="1" parent="1">
                    <mxGeometry x="320" y="347" width="160" height="138" as="geometry"/>
                </mxCell>
                <mxCell id="Lmvut249eSvQj9KjLrhC-19" value="appointment_id : int" style="text;strokeColor=none;fillColor=none;align=left;verticalAlign=top;spacingLeft=4;spacingRight=4;overflow=hidden;rotatable=0;points=[[0,0.5],[1,0.5]];portConstraint=eastwest;" vertex="1" parent="Lmvut249eSvQj9KjLrhC-18">
                    <mxGeometry y="26" width="160" height="26" as="geometry"/>
                </mxCell>
                <mxCell id="Lmvut249eSvQj9KjLrhC-20" value="" style="line;strokeWidth=1;fillColor=none;align=left;verticalAlign=middle;spacingTop=-1;spacingLeft=3;spacingRight=3;rotatable=0;labelPosition=right;points=[];portConstraint=eastwest;strokeColor=inherit;" vertex="1" parent="Lmvut249eSvQj9KjLrhC-18">
                    <mxGeometry y="52" width="160" height="8" as="geometry"/>
                </mxCell>
                <mxCell id="Lmvut249eSvQj9KjLrhC-21" value="time : data" style="text;strokeColor=none;fillColor=none;align=left;verticalAlign=top;spacingLeft=4;spacingRight=4;overflow=hidden;rotatable=0;points=[[0,0.5],[1,0.5]];portConstraint=eastwest;" vertex="1" parent="Lmvut249eSvQj9KjLrhC-18">
                    <mxGeometry y="60" width="160" height="26" as="geometry"/>
                </mxCell>
                <mxCell id="Lmvut249eSvQj9KjLrhC-22" value="location : varchar" style="text;strokeColor=none;fillColor=none;align=left;verticalAlign=top;spacingLeft=4;spacingRight=4;overflow=hidden;rotatable=0;points=[[0,0.5],[1,0.5]];portConstraint=eastwest;" vertex="1" parent="Lmvut249eSvQj9KjLrhC-18">
                    <mxGeometry y="86" width="160" height="26" as="geometry"/>
                </mxCell>
                <mxCell id="VW_mA1LhqFQn51hT7c9h-17" value="fk_administrator_id : int" style="text;strokeColor=none;fillColor=none;align=left;verticalAlign=top;spacingLeft=4;spacingRight=4;overflow=hidden;rotatable=0;points=[[0,0.5],[1,0.5]];portConstraint=eastwest;" vertex="1" parent="Lmvut249eSvQj9KjLrhC-18">
                    <mxGeometry y="112" width="160" height="26" as="geometry"/>
                </mxCell>
                <mxCell id="NxPw10Utk3mcTH2RlWuU-1" value="Patient_details" style="swimlane;fontStyle=1;align=center;verticalAlign=top;childLayout=stackLayout;horizontal=1;startSize=26;horizontalStack=0;resizeParent=1;resizeParentMax=0;resizeLast=0;collapsible=1;marginBottom=0;" vertex="1" parent="1">
                    <mxGeometry x="960" y="530" width="160" height="164" as="geometry"/>
                </mxCell>
                <mxCell id="NxPw10Utk3mcTH2RlWuU-2" value="details_id : int" style="text;strokeColor=none;fillColor=none;align=left;verticalAlign=top;spacingLeft=4;spacingRight=4;overflow=hidden;rotatable=0;points=[[0,0.5],[1,0.5]];portConstraint=eastwest;" vertex="1" parent="NxPw10Utk3mcTH2RlWuU-1">
                    <mxGeometry y="26" width="160" height="26" as="geometry"/>
                </mxCell>
                <mxCell id="NxPw10Utk3mcTH2RlWuU-3" value="" style="line;strokeWidth=1;fillColor=none;align=left;verticalAlign=middle;spacingTop=-1;spacingLeft=3;spacingRight=3;rotatable=0;labelPosition=right;points=[];portConstraint=eastwest;strokeColor=inherit;" vertex="1" parent="NxPw10Utk3mcTH2RlWuU-1">
                    <mxGeometry y="52" width="160" height="8" as="geometry"/>
                </mxCell>
                <mxCell id="NxPw10Utk3mcTH2RlWuU-4" value="email : varchar" style="text;strokeColor=none;fillColor=none;align=left;verticalAlign=top;spacingLeft=4;spacingRight=4;overflow=hidden;rotatable=0;points=[[0,0.5],[1,0.5]];portConstraint=eastwest;" vertex="1" parent="NxPw10Utk3mcTH2RlWuU-1">
                    <mxGeometry y="60" width="160" height="26" as="geometry"/>
                </mxCell>
                <mxCell id="NxPw10Utk3mcTH2RlWuU-5" value="address : varchar" style="text;strokeColor=none;fillColor=none;align=left;verticalAlign=top;spacingLeft=4;spacingRight=4;overflow=hidden;rotatable=0;points=[[0,0.5],[1,0.5]];portConstraint=eastwest;" vertex="1" parent="NxPw10Utk3mcTH2RlWuU-1">
                    <mxGeometry y="86" width="160" height="26" as="geometry"/>
                </mxCell>
                <mxCell id="nC_fXBVMam2LDfGGZ-Cr-1" value="insurance_number : int" style="text;strokeColor=none;fillColor=none;align=left;verticalAlign=top;spacingLeft=4;spacingRight=4;overflow=hidden;rotatable=0;points=[[0,0.5],[1,0.5]];portConstraint=eastwest;" vertex="1" parent="NxPw10Utk3mcTH2RlWuU-1">
                    <mxGeometry y="112" width="160" height="26" as="geometry"/>
                </mxCell>
                <mxCell id="VW_mA1LhqFQn51hT7c9h-9" value="fk_patient_id : int" style="text;strokeColor=none;fillColor=none;align=left;verticalAlign=top;spacingLeft=4;spacingRight=4;overflow=hidden;rotatable=0;points=[[0,0.5],[1,0.5]];portConstraint=eastwest;" vertex="1" parent="NxPw10Utk3mcTH2RlWuU-1">
                    <mxGeometry y="138" width="160" height="26" as="geometry"/>
                </mxCell>
                <mxCell id="VW_mA1LhqFQn51hT7c9h-1" value="Appointment_table" style="swimlane;fontStyle=1;align=center;verticalAlign=top;childLayout=stackLayout;horizontal=1;startSize=26;horizontalStack=0;resizeParent=1;resizeParentMax=0;resizeLast=0;collapsible=1;marginBottom=0;" vertex="1" parent="1">
                    <mxGeometry x="590" y="347" width="160" height="138" as="geometry"/>
                </mxCell>
                <mxCell id="VW_mA1LhqFQn51hT7c9h-2" value="id : int" style="text;strokeColor=none;fillColor=none;align=left;verticalAlign=top;spacingLeft=4;spacingRight=4;overflow=hidden;rotatable=0;points=[[0,0.5],[1,0.5]];portConstraint=eastwest;" vertex="1" parent="VW_mA1LhqFQn51hT7c9h-1">
                    <mxGeometry y="26" width="160" height="26" as="geometry"/>
                </mxCell>
                <mxCell id="VW_mA1LhqFQn51hT7c9h-3" value="" style="line;strokeWidth=1;fillColor=none;align=left;verticalAlign=middle;spacingTop=-1;spacingLeft=3;spacingRight=3;rotatable=0;labelPosition=right;points=[];portConstraint=eastwest;strokeColor=inherit;" vertex="1" parent="VW_mA1LhqFQn51hT7c9h-1">
                    <mxGeometry y="52" width="160" height="8" as="geometry"/>
                </mxCell>
                <mxCell id="VW_mA1LhqFQn51hT7c9h-4" value="fk_doctor_id : int" style="text;strokeColor=none;fillColor=none;align=left;verticalAlign=top;spacingLeft=4;spacingRight=4;overflow=hidden;rotatable=0;points=[[0,0.5],[1,0.5]];portConstraint=eastwest;" vertex="1" parent="VW_mA1LhqFQn51hT7c9h-1">
                    <mxGeometry y="60" width="160" height="26" as="geometry"/>
                </mxCell>
                <mxCell id="VW_mA1LhqFQn51hT7c9h-5" value="fk_patient_id : int" style="text;strokeColor=none;fillColor=none;align=left;verticalAlign=top;spacingLeft=4;spacingRight=4;overflow=hidden;rotatable=0;points=[[0,0.5],[1,0.5]];portConstraint=eastwest;" vertex="1" parent="VW_mA1LhqFQn51hT7c9h-1">
                    <mxGeometry y="86" width="160" height="26" as="geometry"/>
                </mxCell>
                <mxCell id="VW_mA1LhqFQn51hT7c9h-6" value="fk_appointment_id : int" style="text;strokeColor=none;fillColor=none;align=left;verticalAlign=top;spacingLeft=4;spacingRight=4;overflow=hidden;rotatable=0;points=[[0,0.5],[1,0.5]];portConstraint=eastwest;" vertex="1" parent="VW_mA1LhqFQn51hT7c9h-1">
                    <mxGeometry y="112" width="160" height="26" as="geometry"/>
                </mxCell>
                <mxCell id="VW_mA1LhqFQn51hT7c9h-10" style="edgeStyle=orthogonalEdgeStyle;html=1;exitX=1;exitY=0.5;exitDx=0;exitDy=0;entryX=0;entryY=0.5;entryDx=0;entryDy=0;startArrow=ERone;startFill=0;endArrow=ERone;endFill=0;" edge="1" parent="1" source="Lmvut249eSvQj9KjLrhC-13" target="VW_mA1LhqFQn51hT7c9h-9">
                    <mxGeometry relative="1" as="geometry"/>
                </mxCell>
                <mxCell id="VW_mA1LhqFQn51hT7c9h-12" style="edgeStyle=orthogonalEdgeStyle;html=1;exitX=1;exitY=0.5;exitDx=0;exitDy=0;entryX=1;entryY=0.5;entryDx=0;entryDy=0;startArrow=ERone;startFill=0;endArrow=ERmany;endFill=0;" edge="1" parent="1" source="Lmvut249eSvQj9KjLrhC-8" target="VW_mA1LhqFQn51hT7c9h-4">
                    <mxGeometry relative="1" as="geometry"/>
                </mxCell>
                <mxCell id="VW_mA1LhqFQn51hT7c9h-13" style="edgeStyle=orthogonalEdgeStyle;html=1;exitX=1;exitY=0.5;exitDx=0;exitDy=0;entryX=0;entryY=0.5;entryDx=0;entryDy=0;startArrow=ERone;startFill=0;endArrow=ERmany;endFill=0;" edge="1" parent="1" source="Lmvut249eSvQj9KjLrhC-19" target="VW_mA1LhqFQn51hT7c9h-6">
                    <mxGeometry relative="1" as="geometry"/>
                </mxCell>
                <mxCell id="VW_mA1LhqFQn51hT7c9h-18" style="edgeStyle=orthogonalEdgeStyle;html=1;exitX=1;exitY=0.5;exitDx=0;exitDy=0;entryX=0;entryY=0.5;entryDx=0;entryDy=0;startArrow=ERone;startFill=0;endArrow=ERmany;endFill=0;" edge="1" parent="1" source="Lmvut249eSvQj9KjLrhC-3" target="VW_mA1LhqFQn51hT7c9h-17">
                    <mxGeometry relative="1" as="geometry"/>
                </mxCell>
                <mxCell id="VW_mA1LhqFQn51hT7c9h-21" style="edgeStyle=orthogonalEdgeStyle;html=1;exitX=0;exitY=0.5;exitDx=0;exitDy=0;entryX=0;entryY=0.5;entryDx=0;entryDy=0;startArrow=ERone;startFill=0;endArrow=ERmany;endFill=0;" edge="1" parent="1" source="1G_BOFx4f-t0yg16kwgL-2" target="VW_mA1LhqFQn51hT7c9h-20">
                    <mxGeometry relative="1" as="geometry">
                        <Array as="points">
                            <mxPoint x="80" y="199"/>
                            <mxPoint x="80" y="655"/>
                        </Array>
                    </mxGeometry>
                </mxCell>
                <mxCell id="VW_mA1LhqFQn51hT7c9h-23" style="edgeStyle=orthogonalEdgeStyle;html=1;exitX=1;exitY=0.5;exitDx=0;exitDy=0;entryX=0;entryY=0.5;entryDx=0;entryDy=0;startArrow=ERone;startFill=0;endArrow=ERmany;endFill=0;" edge="1" parent="1" source="1G_BOFx4f-t0yg16kwgL-2" target="VW_mA1LhqFQn51hT7c9h-22">
                    <mxGeometry relative="1" as="geometry"/>
                </mxCell>
                <mxCell id="VW_mA1LhqFQn51hT7c9h-25" style="edgeStyle=orthogonalEdgeStyle;html=1;exitX=1;exitY=0.5;exitDx=0;exitDy=0;entryX=0;entryY=0.5;entryDx=0;entryDy=0;startArrow=ERone;startFill=0;endArrow=ERmany;endFill=0;" edge="1" parent="1" source="Lmvut249eSvQj9KjLrhC-1" target="VW_mA1LhqFQn51hT7c9h-24">
                    <mxGeometry relative="1" as="geometry">
                        <Array as="points">
                            <mxPoint x="520" y="259"/>
                            <mxPoint x="520" y="655"/>
                        </Array>
                    </mxGeometry>
                </mxCell>
            </root>
        </mxGraphModel>
    </diagram>
</mxfile>